<svg xmlns="http://www.w3.org/2000/svg" viewBox="0 0 1600 1000" role="img" aria-labelledby="title desc">
<title id="title">远古巨树拱门草图与基座范围</title>
<desc id="desc">远古巨树拱门模型草图，包含正视、侧视、顶视和地图基座覆盖范围。</desc>
<style>
svg{background:#070707;font-family:Inter,-apple-system,BlinkMacSystemFont,"PingFang SC","Microsoft YaHei",sans-serif}.title{fill:#f7f0e5;font-size:30px;font-weight:900}.note{fill:#aaa095;font-size:14px}.panel{fill:#10100f;stroke:rgba(246,189,117,.36);stroke-width:1.2}.grid{stroke:rgba(255,255,255,.08);stroke-width:1}.major{stroke:rgba(246,189,117,.28)}.shape{fill:#2e3233;stroke:#d8d3c9;stroke-width:2}.cut{fill:#070707;stroke:#c9c2b7;stroke-width:1.6}.root{fill:#242829;stroke:#aaa59d;stroke-width:1.5}.fiber{stroke:#596064;stroke-width:1;opacity:.72}.crack{stroke:#080808;stroke-width:5;opacity:.58}.label{fill:#f7f0e5;font-size:14px;font-weight:800;paint-order:stroke;stroke:#070707;stroke-width:4px}.small{fill:#c9beb0;font-size:12px}.footprint{fill:rgba(255,82,82,.16);stroke:#ff5757;stroke-width:3}.candidate{fill:#8f8f88;stroke:white;stroke-width:2}.table{fill:#e8ded1;font-size:14px}.muted{fill:#9f9588}.measure{stroke:#fff2bd;stroke-width:1.4;stroke-dasharray:5 5}.measureText{fill:#fff2bd;font-size:13px;font-weight:900;paint-order:stroke;stroke:#070707;stroke-width:4px}
</style>
<text class="title" x="70" y="54">远古巨树拱门：草图与基座范围</text>
<text class="note" x="70" y="82">位置：背面黑暗半球 lon 0° / lat -50°，约 X 0.0 / Z 110.8。这是体量草案，不是最终美术细化。</text>

<rect class="panel" x="70" y="120" width="470" height="520" rx="6"/>
<text class="label" x="92" y="152">正视草图 / 玩家接近视角</text>
<path class="shape" d="M160 585 C140 480 135 290 178 180 C215 125 325 125 365 180 C410 300 410 478 385 585 C330 610 220 610 160 585 Z"/>
<path class="cut" d="M235 550 C220 455 220 310 250 235 C275 205 323 205 345 235 C367 320 365 455 342 550 C318 565 262 565 235 550 Z"/>
<path class="root" d="M135 596 C190 572 348 572 410 596 L455 627 C330 648 214 648 90 627 Z"/>
<path class="crack" d="M190 190 C210 270 195 385 210 565"/><path class="crack" d="M325 160 C315 275 336 390 315 580"/><path class="crack" d="M370 235 C352 310 382 410 360 525"/>
<path class="fiber" d="M170 170 C156 300 188 440 162 585"/><path class="fiber" d="M179 170 C165 300 197 440 171 585"/><path class="fiber" d="M188 170 C174 300 206 440 180 585"/><path class="fiber" d="M197 170 C183 300 215 440 189 585"/><path class="fiber" d="M206 170 C192 300 224 440 198 585"/><path class="fiber" d="M215 170 C201 300 233 440 207 585"/><path class="fiber" d="M224 170 C210 300 242 440 216 585"/><path class="fiber" d="M233 170 C219 300 251 440 225 585"/><path class="fiber" d="M242 170 C228 300 260 440 234 585"/><path class="fiber" d="M251 170 C237 300 269 440 243 585"/><path class="fiber" d="M260 170 C246 300 278 440 252 585"/><path class="fiber" d="M269 170 C255 300 287 440 261 585"/><path class="fiber" d="M278 170 C264 300 296 440 270 585"/><path class="fiber" d="M287 170 C273 300 305 440 279 585"/><path class="fiber" d="M296 170 C282 300 314 440 288 585"/><path class="fiber" d="M305 170 C291 300 323 440 297 585"/><path class="fiber" d="M314 170 C300 300 332 440 306 585"/><path class="fiber" d="M323 170 C309 300 341 440 315 585"/><path class="fiber" d="M332 170 C318 300 350 440 324 585"/><path class="fiber" d="M341 170 C327 300 359 440 333 585"/><path class="fiber" d="M350 170 C336 300 368 440 342 585"/><path class="fiber" d="M359 170 C345 300 377 440 351 585"/><path class="fiber" d="M368 170 C354 300 386 440 360 585"/><path class="fiber" d="M377 170 C363 300 395 440 369 585"/>
<path class="measure" d="M130 585V165"/><text class="measureText" x="90" y="370">高 118</text>
<path class="measure" d="M160 625H385"/><text class="measureText" x="232" y="648">外宽 92</text>
<path class="measure" d="M235 566H342"/><text class="measureText" x="250" y="585">洞宽 42</text>

<rect class="panel" x="590" y="120" width="370" height="520" rx="6"/>
<text class="label" x="612" y="152">侧视草图 / 厚度</text>
<path class="shape" d="M720 585 C688 475 690 280 728 176 C770 132 832 138 855 185 C875 310 864 490 832 585 C800 606 754 606 720 585 Z"/>
<path class="cut" d="M762 548 C744 440 750 305 775 232 C798 209 827 216 838 242 C848 336 839 456 816 548 C800 558 778 558 762 548 Z"/>
<path class="root" d="M675 598 C727 572 830 574 880 599 L920 628 C810 647 720 647 635 628 Z"/>
<path class="fiber" d="M724 170 C715 320 736 465 720 585"/><path class="fiber" d="M733 170 C724 320 745 465 729 585"/><path class="fiber" d="M742 170 C733 320 754 465 738 585"/><path class="fiber" d="M751 170 C742 320 763 465 747 585"/><path class="fiber" d="M760 170 C751 320 772 465 756 585"/><path class="fiber" d="M769 170 C760 320 781 465 765 585"/><path class="fiber" d="M778 170 C769 320 790 465 774 585"/><path class="fiber" d="M787 170 C778 320 799 465 783 585"/><path class="fiber" d="M796 170 C787 320 808 465 792 585"/><path class="fiber" d="M805 170 C796 320 817 465 801 585"/><path class="fiber" d="M814 170 C805 320 826 465 810 585"/><path class="fiber" d="M823 170 C814 320 835 465 819 585"/><path class="fiber" d="M832 170 C823 320 844 465 828 585"/><path class="fiber" d="M841 170 C832 320 853 465 837 585"/>
<path class="measure" d="M680 625H890"/><text class="measureText" x="745" y="648">厚度约 46</text>

<rect class="panel" x="1010" y="120" width="520" height="520" rx="6"/>
<text class="label" x="1032" y="152">顶视 / 基座占地</text>
<ellipse class="footprint" cx="1265" cy="385" rx="190" ry="150"/>
<ellipse class="shape" cx="1265" cy="385" rx="130" ry="92"/>
<ellipse class="cut" cx="1265" cy="385" rx="58" ry="34"/>
<path class="root" d="M1130 382 C1175 335 1230 322 1268 340 C1320 312 1385 345 1415 390 C1360 450 1195 460 1130 382 Z"/>
<circle class="candidate" cx="1265" cy="385" r="5"/>
<text class="small" x="1080" y="568">红色半透明圈：建议基座/碰撞预留范围，半径 58 游戏单位</text>
<text class="small" x="1080" y="590">深灰形体：模型主体根部，外宽 92，厚度约 46</text>

<rect class="panel" x="70" y="690" width="1460" height="240" rx="6"/>
<text class="label" x="92" y="722">地图基座范围 / 经纬度投影</text>
<text class="small" x="92" y="746">红圈为球面半径 58 游戏单位的真实覆盖范围；中心为 lon 0° / lat -50°。</text>
<path class="grid major" d="M80.0 770V900"/><text class="small" x="64" y="920">-180°</text><path class="grid major" d="M296.7 770V900"/><text class="small" x="280.66666666666663" y="920">-120°</text><path class="grid major" d="M513.3 770V900"/><text class="small" x="497.33333333333326" y="920">-60°</text><path class="grid major" d="M730.0 770V900"/><text class="small" x="714" y="920">0°</text><path class="grid major" d="M946.7 770V900"/><text class="small" x="930.6666666666666" y="920">60°</text><path class="grid major" d="M1163.3 770V900"/><text class="small" x="1147.3333333333335" y="920">120°</text><path class="grid major" d="M1380.0 770V900"/><text class="small" x="1364" y="920">180°</text>
<path class="grid major" d="M80 671.7H1380"/><text class="small" x="40" y="675.6666666666667">-60°</text><path class="grid major" d="M80 563.3H1380"/><text class="small" x="40" y="567.3333333333333">-30°</text><path class="grid major" d="M80 455.0H1380"/><text class="small" x="40" y="459">0°</text>
<path class="footprint" d="M860.6 613.5 L858.2 610.1 L855.6 606.8 L852.9 603.5 L850.2 600.3 L847.3 597.1 L844.4 594.0 L841.3 591.0 L838.2 588.1 L835.0 585.2 L831.8 582.4 L828.5 579.7 L825.1 577.1 L821.6 574.6 L818.1 572.2 L814.5 569.8 L810.8 567.5 L807.1 565.4 L803.4 563.3 L799.6 561.4 L795.7 559.5 L791.9 557.7 L787.9 556.1 L784.0 554.5 L779.9 553.1 L775.9 551.7 L771.8 550.5 L767.7 549.4 L763.6 548.4 L759.5 547.5 L755.3 546.8 L751.1 546.1 L746.9 545.6 L742.7 545.2 L738.5 544.9 L734.2 544.7 L730.0 544.6 L725.8 544.7 L721.5 544.9 L717.3 545.2 L713.1 545.6 L708.9 546.1 L704.7 546.8 L700.5 547.5 L696.4 548.4 L692.3 549.4 L688.2 550.5 L684.1 551.7 L680.1 553.1 L676.0 554.5 L672.1 556.1 L668.1 557.7 L664.3 559.5 L660.4 561.4 L656.6 563.3 L652.9 565.4 L649.2 567.5 L645.5 569.8 L641.9 572.2 L638.4 574.6 L634.9 577.1 L631.5 579.7 L628.2 582.4 L625.0 585.2 L621.8 588.1 L618.7 591.0 L615.6 594.0 L612.7 597.1 L609.8 600.3 L607.1 603.5 L604.4 606.8 L601.8 610.1 L599.4 613.5 L597.0 616.9 L594.8 620.4 L592.7 624.0 L590.7 627.6 L588.8 631.2 L587.1 634.9 L585.6 638.6 L584.2 642.4 L583.1 646.1 L582.1 649.9 L581.3 653.7 L580.7 657.6 L580.4 661.4 L580.4 665.3 L580.6 669.1 L581.2 672.9 L582.2 676.7 L583.5 680.5 L585.3 684.3 L587.5 688.0 L590.2 691.7 L593.6 695.2 L597.6 698.8 L602.2 702.2 L607.7 705.5 L614.0 708.6 L621.3 711.6 L629.5 714.4 L638.7 717.0 L649.1 719.4 L660.5 721.5 L672.9 723.2 L686.2 724.6 L700.4 725.6 L715.0 726.3 L730.0 726.5 L745.0 726.3 L759.6 725.6 L773.8 724.6 L787.1 723.2 L799.5 721.5 L810.9 719.4 L821.3 717.0 L830.5 714.4 L838.7 711.6 L846.0 708.6 L852.3 705.5 L857.8 702.2 L862.4 698.8 L866.4 695.2 L869.8 691.7 L872.5 688.0 L874.7 684.3 L876.5 680.5 L877.8 676.7 L878.8 672.9 L879.4 669.1 L879.6 665.3 L879.6 661.4 L879.3 657.6 L878.7 653.7 L877.9 649.9 L876.9 646.1 L875.8 642.4 L874.4 638.6 L872.9 634.9 L871.2 631.2 L869.3 627.6 L867.3 624.0 L865.2 620.4 L863.0 616.9 L860.6 613.5 Z"/>
<circle class="candidate" cx="730.0" cy="635.6" r="7"/>
<text class="label" x="742" y="625.5555555555555">新推荐中心</text>
<text class="small" x="742" y="643.5555555555555">X 0.0 / Z 110.8</text>

<text class="table" x="1110" y="720">尺寸草案</text>
<text class="table muted" x="1110" y="748">总高</text><text class="table" x="1215" y="748">118</text>
<text class="table muted" x="1110" y="774">主洞开口</text><text class="table" x="1215" y="774">42 × 78</text>
<text class="table muted" x="1110" y="800">主体外宽</text><text class="table" x="1215" y="800">92</text>
<text class="table muted" x="1110" y="826">主体厚度</text><text class="table" x="1215" y="826">约 46</text>
<text class="table muted" x="1110" y="852">基座预留半径</text><text class="table" x="1215" y="852">58</text>
<text class="table muted" x="1110" y="878">建议碰撞半径</text><text class="table" x="1215" y="878">58-64</text>
</svg>