<svg xmlns="http://www.w3.org/2000/svg" viewBox="0 0 2200 1500" role="img" aria-labelledby="title desc"><style>
svg{background:#070707;font-family:Inter,-apple-system,BlinkMacSystemFont,"PingFang SC","Microsoft YaHei",sans-serif;color:#f7f0e5}.title{fill:#f7f0e5;font-size:30px;font-weight:900}.subtitle,.note{fill:#a99f91;font-size:15px}.panel{fill:#10100f;stroke:rgba(246,189,117,.38);stroke-width:1.4}.grid{stroke:rgba(255,255,255,.09);stroke-width:1}.grid.major{stroke:rgba(246,189,117,.24);stroke-width:1.2}.equator{stroke:rgba(134,215,232,.45);stroke-width:1.4;stroke-dasharray:8 8}.darkhemi{fill:rgba(70,80,92,.18)}.archFootprint{fill:rgba(255,82,82,.16);stroke:#ff5757;stroke-width:3}.archCore{fill:rgba(255,82,82,.28);stroke:#ff8a8a;stroke-width:1.6;stroke-dasharray:4 4}.latlon{fill:#8f867a;font-size:12px}.pin text{fill:#f7f0e5;font-size:13px;font-weight:900;paint-order:stroke;stroke:#070707;stroke-width:4px;stroke-linejoin:round}.pin .small{fill:#c9beb0;font-size:11px;font-weight:700}.pin circle{stroke:rgba(255,245,225,.95);stroke-width:1.6}.base circle{fill:#75d7f0}.energy circle{fill:#d7c85c}.ship circle{fill:#e6b06b}.spawn circle{fill:#ff4e3a}.unknown circle{fill:#ffd95a}.mystery circle{fill:#111315;stroke:#e8e0d2}.fun circle{fill:#8ecf90}.candidate circle{fill:#8f8f88;stroke:#fff;stroke-width:2.6}.table-title{fill:#f6bd75;font-size:18px;font-weight:900}.th{fill:#9f9588;font-size:13px;font-weight:900}.td{fill:#e8ded1;font-size:13px}.muted{fill:#a99f91}.row{stroke:rgba(255,255,255,.07);stroke-width:1}.legend text{fill:#b9afa2;font-size:13px}.measure{stroke:#fff2bd;stroke-width:1.4;stroke-dasharray:5 5}.measureText{fill:#fff2bd;font-size:13px;font-weight:900;paint-order:stroke;stroke:#070707;stroke-width:4px}.source{fill:#81786d;font-size:12px}</style><title id="title">火星固定物体真实经纬度高清地图</title><desc id="desc">由游戏源码中的实际坐标计算经纬度后绘制，并叠加远古巨树拱门基座范围。</desc><text class="title" x="90" y="58">火星固定物体真实经纬度高清地图</text><text class="subtitle" x="90" y="86">数据源：src/world.ts 与 src/main.ts 的实际 X/Z、半球 normal；经纬度由球面法线计算。红圈为远古巨树拱门基座真实比例范围，右侧为基地局部等比例放大。</text><rect class="panel" x="90" y="130" width="1240" height="620" rx="6"/><rect class="darkhemi" x="90" y="440" width="1240" height="310"/><path class="grid major" d="M90.0 130V750"/><text class="latlon" x="76" y="772">-180°</text><path class="grid" d="M193.3 130V750"/><text class="latlon" x="179.33333333333331" y="772">-150°</text><path class="grid" d="M296.7 130V750"/><text class="latlon" x="282.66666666666663" y="772">-120°</text><path class="grid major" d="M400.0 130V750"/><text class="latlon" x="386" y="772">-90°</text><path class="grid" d="M503.3 130V750"/><text class="latlon" x="489.3333333333333" y="772">-60°</text><path class="grid" d="M606.7 130V750"/><text class="latlon" x="592.6666666666667" y="772">-30°</text><path class="grid major" d="M710.0 130V750"/><text class="latlon" x="696" y="772">0°</text><path class="grid" d="M813.3 130V750"/><text class="latlon" x="799.3333333333334" y="772">30°</text><path class="grid" d="M916.7 130V750"/><text class="latlon" x="902.6666666666666" y="772">60°</text><path class="grid major" d="M1020.0 130V750"/><text class="latlon" x="1006" y="772">90°</text><path class="grid" d="M1123.3 130V750"/><text class="latlon" x="1109.3333333333335" y="772">120°</text><path class="grid" d="M1226.7 130V750"/><text class="latlon" x="1212.6666666666665" y="772">150°</text><path class="grid major" d="M1330.0 130V750"/><text class="latlon" x="1316" y="772">180°</text><path class="grid major" d="M90 750.0H1330"/><text class="latlon" x="42" y="754">-90°</text><path class="grid" d="M90 646.7H1330"/><text class="latlon" x="42" y="650.6666666666667">-60°</text><path class="grid" d="M90 543.3H1330"/><text class="latlon" x="42" y="547.3333333333333">-30°</text><path class="grid major" d="M90 440.0H1330"/><text class="latlon" x="42" y="444">0°</text><path class="grid" d="M90 336.7H1330"/><text class="latlon" x="42" y="340.66666666666663">30°</text><path class="grid" d="M90 233.3H1330"/><text class="latlon" x="42" y="237.33333333333331">60°</text><path class="grid major" d="M90 130.0H1330"/><text class="latlon" x="42" y="134">90°</text><path class="equator" d="M90 440H1330"/><text class="note" x="100" y="430">赤道 / lat 0°；下半区为背面黑暗半球候选分析区</text><path class="archFootprint" d="M834.6 591.2 L832.7 588.6 L830.8 586.0 L828.8 583.5 L826.7 581.0 L824.6 578.6 L822.4 576.1 L820.2 573.8 L817.9 571.5 L815.6 569.2 L813.2 566.9 L810.8 564.7 L808.3 562.6 L805.8 560.5 L803.3 558.5 L800.7 556.5 L798.0 554.5 L795.4 552.7 L792.6 550.8 L789.9 549.1 L787.1 547.3 L784.3 545.7 L781.4 544.1 L778.6 542.6 L775.6 541.1 L772.7 539.7 L769.7 538.3 L766.8 537.0 L763.7 535.8 L760.7 534.6 L757.6 533.6 L754.6 532.5 L751.5 531.6 L748.3 530.7 L745.2 529.9 L742.1 529.1 L738.9 528.4 L735.7 527.8 L732.5 527.3 L729.3 526.8 L726.1 526.4 L722.9 526.1 L719.7 525.8 L716.5 525.7 L713.2 525.5 L710.0 525.5 L706.8 525.5 L703.5 525.7 L700.3 525.8 L697.1 526.1 L693.9 526.4 L690.7 526.8 L687.5 527.3 L684.3 527.8 L681.1 528.4 L677.9 529.1 L674.8 529.9 L671.7 530.7 L668.5 531.6 L665.4 532.5 L662.4 533.6 L659.3 534.6 L656.3 535.8 L653.2 537.0 L650.3 538.3 L647.3 539.7 L644.4 541.1 L641.4 542.6 L638.6 544.1 L635.7 545.7 L632.9 547.3 L630.1 549.1 L627.4 550.8 L624.6 552.7 L622.0 554.5 L619.3 556.5 L616.7 558.5 L614.2 560.5 L611.7 562.6 L609.2 564.7 L606.8 566.9 L604.4 569.2 L602.1 571.5 L599.8 573.8 L597.6 576.1 L595.4 578.6 L593.3 581.0 L591.2 583.5 L589.2 586.0 L587.3 588.6 L585.4 591.2 L583.6 593.8 L581.9 596.5 L580.2 599.2 L578.6 601.9 L577.1 604.6 L575.7 607.4 L574.4 610.2 L573.1 613.0 L572.0 615.9 L571.0 618.7 L570.0 621.6 L569.2 624.5 L568.6 627.4 L568.0 630.3 L567.6 633.2 L567.4 636.2 L567.3 639.1 L567.4 642.0 L567.6 644.9 L568.1 647.9 L568.8 650.8 L569.7 653.7 L570.9 656.6 L572.3 659.4 L574.1 662.2 L576.1 665.0 L578.5 667.8 L581.3 670.5 L584.5 673.2 L588.1 675.8 L592.2 678.3 L596.9 680.7 L602.0 683.1 L607.8 685.3 L614.1 687.5 L621.1 689.5 L628.7 691.3 L637.0 693.0 L646.0 694.5 L655.5 695.8 L665.7 696.9 L676.3 697.8 L687.3 698.4 L698.6 698.8 L710.0 698.9 L721.4 698.8 L732.7 698.4 L743.7 697.8 L754.3 696.9 L764.5 695.8 L774.0 694.5 L783.0 693.0 L791.3 691.3 L798.9 689.5 L805.9 687.5 L812.2 685.3 L818.0 683.1 L823.1 680.7 L827.8 678.3 L831.9 675.8 L835.5 673.2 L838.7 670.5 L841.5 667.8 L843.9 665.0 L845.9 662.2 L847.7 659.4 L849.1 656.6 L850.3 653.7 L851.2 650.8 L851.9 647.9 L852.4 644.9 L852.6 642.0 L852.7 639.1 L852.6 636.2 L852.4 633.2 L852.0 630.3 L851.4 627.4 L850.8 624.5 L850.0 621.6 L849.0 618.7 L848.0 615.9 L846.9 613.0 L845.6 610.2 L844.3 607.4 L842.9 604.6 L841.4 601.9 L839.8 599.2 L838.1 596.5 L836.4 593.8 L834.6 591.2 Z"/><circle class="archCore" cx="710.0" cy="612.2" r="34"/><text class="measureText" x="752" y="654.2222222222222">基座半径 58 游戏单位</text><g class="pin spawn"><circle cx="118.4" cy="319.2" r="5.5"/><text x="126.4" y="337.2">00 玩家出生点</text><text class="small" x="126.4" y="352.2">lon -171.7° / lat 35.1°</text></g><g class="pin base"><circle cx="710.0" cy="206.6" r="5.5"/><text x="718.0" y="198.6">01 居住舱</text><text class="small" x="718.0" y="213.6">lon 0.0° / lat 67.8°</text></g><g class="pin base"><circle cx="527.0" cy="248.1" r="5.5"/><text x="435.0" y="240.1">02 温室生态舱</text><text class="small" x="435.0" y="255.1">lon -53.1° / lat 55.7°</text></g><g class="pin base"><circle cx="893.0" cy="248.1" r="5.5"/><text x="901.0" y="240.1">03 氧气生产站</text><text class="small" x="901.0" y="255.1">lon 53.1° / lat 55.7°</text></g><g class="pin base"><circle cx="1136.0" cy="244.5" r="5.5"/><text x="1144.0" y="262.5">04 甲烷燃料厂</text><text class="small" x="1144.0" y="277.5">lon 123.7° / lat 56.8°</text></g><g class="pin base"><circle cx="275.9" cy="239.3" r="5.5"/><text x="185.9" y="257.3">05 机器人车库</text><text class="small" x="185.9" y="272.3">lon -126.0° / lat 58.3°</text></g><g class="pin base"><circle cx="925.1" cy="301.2" r="5.5"/><text x="933.1" y="293.2">06 通信塔</text><text class="small" x="933.1" y="308.2">lon 62.4° / lat 40.3°</text></g><g class="pin base"><circle cx="372.0" cy="281.4" r="5.5"/><text x="284.0" y="273.4">07 科研舱</text><text class="small" x="284.0" y="288.4">lon -98.1° / lat 46.0°</text></g><g class="pin base"><circle cx="284.0" cy="298.5" r="5.5"/><text x="196.0" y="316.5">08 物资仓</text><text class="small" x="196.0" y="331.5">lon -123.7° / lat 41.1°</text></g><g class="pin base"><circle cx="1055.5" cy="286.6" r="5.5"/><text x="1063.5" y="304.6">09 医疗舱</text><text class="small" x="1063.5" y="319.6">lon 100.3° / lat 44.5°</text></g><g class="pin energy"><circle cx="631.0" cy="309.4" r="5.5"/><text x="531.0" y="301.4">10 太阳能阵列 A</text><text class="small" x="531.0" y="316.4">lon -22.9° / lat 37.9°</text></g><g class="pin energy"><circle cx="694.8" cy="301.7" r="5.5"/><text x="702.8" y="277.7">11 太阳能阵列 B</text><text class="small" x="702.8" y="292.7">lon -4.4° / lat 40.2°</text></g><g class="pin energy"><circle cx="761.9" cy="304.8" r="5.5"/><text x="769.9" y="296.8">12 太阳能阵列 C</text><text class="small" x="769.9" y="311.8">lon 15.1° / lat 39.3°</text></g><g class="pin ship"><circle cx="914.7" cy="384.8" r="5.5"/><text x="922.7" y="376.8">13 登陆飞船</text><text class="small" x="922.7" y="391.8">lon 59.4° / lat 16.0°</text></g><g class="pin ship"><circle cx="995.1" cy="381.1" r="5.5"/><text x="1003.1" y="399.1">14 货运飞船</text><text class="small" x="1003.1" y="414.1">lon 82.8° / lat 17.1°</text></g><g class="pin ship"><circle cx="519.9" cy="381.4" r="5.5"/><text x="413.9" y="373.4">15 返回飞船</text><text class="small" x="413.9" y="388.4">lon -55.2° / lat 17.0°</text></g><g class="pin unknown"><circle cx="897.1" cy="355.2" r="5.5"/><text x="905.1" y="347.2">16 NASA 火星车</text><text class="small" x="905.1" y="362.2">lon 54.3° / lat 24.6°</text></g><g class="pin mystery"><circle cx="262.9" cy="403.4" r="5.5"/><text x="270.9" y="395.4">17 黑色方碑</text><text class="small" x="270.9" y="410.4">lon -129.8° / lat 10.6°</text></g><g class="pin fun"><circle cx="796.6" cy="238.8" r="5.5"/><text x="804.6" y="256.8">18 火星足球</text><text class="small" x="804.6" y="271.8">lon 25.1° / lat 58.4°</text></g><g class="pin unknown"><circle cx="140.8" cy="571.8" r="5.5"/><text x="148.8" y="563.8">19 坠毁飞船残骸</text><text class="small" x="148.8" y="578.8">lon -165.3° / lat -38.3°</text></g><g class="pin unknown"><circle cx="147.3" cy="571.8" r="5.5"/><text x="155.3" y="593.8">20 福福救援点</text><text class="small" x="155.3" y="608.8">lon -163.4° / lat -38.3°</text></g><g class="pin candidate"><circle cx="710.0" cy="612.2" r="8"/><text x="718.0" y="604.2">21 远古巨树拱门候选</text><text class="small" x="718.0" y="619.2">lon 0.0° / lat -50.0°</text></g><text class="table-title" x="1420" y="88">基地局部等比例放大图（X/Z 坐标）</text><text class="note" x="1420" y="112">范围 X -160 到 170，Z -210 到 190。太阳能板 A/B/C 的间距在这里按真实比例显示。</text><rect class="panel" x="1420" y="130" width="650" height="470" rx="6"/><path class="grid" d="M1439.7 130V600"/><text class="latlon" x="1423.6969696969697" y="622">X-150</text><path class="grid" d="M1538.2 130V600"/><text class="latlon" x="1522.1818181818182" y="622">X-100</text><path class="grid" d="M1636.7 130V600"/><text class="latlon" x="1620.6666666666667" y="622">X-50</text><path class="grid major" d="M1735.2 130V600"/><text class="latlon" x="1719.1515151515152" y="622">X0</text><path class="grid" d="M1833.6 130V600"/><text class="latlon" x="1817.6363636363635" y="622">X50</text><path class="grid" d="M1932.1 130V600"/><text class="latlon" x="1916.121212121212" y="622">X100</text><path class="grid" d="M2030.6 130V600"/><text class="latlon" x="2014.6060606060605" y="622">X150</text><path class="grid" d="M1420 588.3H2070"/><text class="latlon" x="1372" y="592.25">Z-200</text><path class="grid" d="M1420 529.5H2070"/><text class="latlon" x="1372" y="533.5">Z-150</text><path class="grid" d="M1420 470.8H2070"/><text class="latlon" x="1372" y="474.75">Z-100</text><path class="grid" d="M1420 412.0H2070"/><text class="latlon" x="1372" y="416">Z-50</text><path class="grid major" d="M1420 353.3H2070"/><text class="latlon" x="1372" y="357.25">Z0</text><path class="grid" d="M1420 294.5H2070"/><text class="latlon" x="1372" y="298.5">Z50</text><path class="grid" d="M1420 235.8H2070"/><text class="latlon" x="1372" y="239.75">Z100</text><path class="grid" d="M1420 177.0H2070"/><text class="latlon" x="1372" y="181">Z150</text><g class="pin spawn"><circle cx="1682.0" cy="571.8" r="5.5"/><text x="1690.0" y="587.8">00 玩家出生点</text><text class="small" x="1690.0" y="602.8">X -27.0 / Z -186.0</text></g><g class="pin base"><circle cx="1735.2" cy="289.8" r="5.5"/><text x="1743.2" y="305.8">01 居住舱</text><text class="small" x="1743.2" y="320.8">X 0.0 / Z 54.0</text></g><g class="pin base"><circle cx="1593.3" cy="289.8" r="5.5"/><text x="1601.3" y="305.8">02 温室生态舱</text><text class="small" x="1601.3" y="320.8">X -72.0 / Z 54.0</text></g><g class="pin base"><circle cx="1877.0" cy="289.8" r="5.5"/><text x="1885.0" y="305.8">03 氧气生产站</text><text class="small" x="1885.0" y="320.8">X 72.0 / Z 54.0</text></g><g class="pin base"><circle cx="1877.0" cy="409.6" r="5.5"/><text x="1885.0" y="425.6">04 甲烷燃料厂</text><text class="small" x="1885.0" y="440.6">X 72.0 / Z -48.0</text></g><g class="pin base"><circle cx="1605.2" cy="409.6" r="5.5"/><text x="1613.2" y="425.6">05 机器人车库</text><text class="small" x="1613.2" y="440.6">X -66.0 / Z -48.0</text></g><g class="pin base"><circle cx="2007.0" cy="268.6" r="5.5"/><text x="2015.0" y="284.6">06 通信塔</text><text class="small" x="2015.0" y="299.6">X 138.0 / Z 72.0</text></g><g class="pin base"><circle cx="1487.0" cy="374.4" r="5.5"/><text x="1495.0" y="390.4">07 科研舱</text><text class="small" x="1495.0" y="405.4">X -126.0 / Z -18.0</text></g><g class="pin base"><circle cx="1487.0" cy="452.0" r="5.5"/><text x="1495.0" y="468.0">08 物资仓</text><text class="small" x="1495.0" y="483.0">X -126.0 / Z -84.0</text></g><g class="pin base"><circle cx="1995.2" cy="381.5" r="5.5"/><text x="2003.2" y="397.5">09 医疗舱</text><text class="small" x="2003.2" y="412.5">X 132.0 / Z -24.0</text></g><g class="pin energy"><circle cx="1605.2" cy="169.9" r="7"/><text x="1615.2" y="159.9">10 太阳能阵列 A</text><text class="small" x="1615.2" y="174.9">X -66.0 / Z 156.0</text></g><g class="pin energy"><circle cx="1711.5" cy="169.9" r="7"/><text x="1721.5" y="159.9">11 太阳能阵列 B</text><text class="small" x="1721.5" y="174.9">X -12.0 / Z 156.0</text></g><g class="pin energy"><circle cx="1817.9" cy="169.9" r="7"/><text x="1827.9" y="159.9">12 太阳能阵列 C</text><text class="small" x="1827.9" y="174.9">X 42.0 / Z 156.0</text></g><g class="pin fun"><circle cx="1803.1" cy="266.9" r="5.5"/><text x="1811.1" y="282.9">18 火星足球</text><text class="small" x="1811.1" y="297.9">X 34.5 / Z 73.5</text></g><path class="measure" d="M1605.1515151515152 151.95L1711.5151515151515 151.95L1817.8787878787878 151.95"/><text class="measureText" x="1615.1515151515152" y="138.95">A-B 33.5，B-C 34.5 游戏单位</text><g class="legend"><circle cx="90" cy="790" r="6" fill="#75d7f0"/><text x="105" y="794">基地建筑</text><circle cx="190" cy="790" r="6" fill="#d7c85c"/><text x="205" y="794">能源阵列</text><circle cx="300" cy="790" r="6" fill="#e6b06b"/><text x="315" y="794">飞船</text><circle cx="380" cy="790" r="6" fill="#ffd95a"/><text x="395" y="794">未知/特殊</text><circle cx="500" cy="790" r="6" fill="#8f8f88"/><text x="515" y="794">候选新增</text><path class="archFootprint" d="M630 782 h42 v16 h-42 Z"/><text x="682" y="794">远古巨树拱门基座范围</text></g><text class="table-title" x="90" y="840">坐标数据核对表</text><text class="th" x="90" y="870">编号</text><text class="th" x="140" y="870">名称</text><text class="th" x="330" y="870">半球</text><text class="th" x="405" y="870">X</text><text class="th" x="475" y="870">Z</text><text class="th" x="545" y="870">经度</text><text class="th" x="625" y="870">纬度</text><text class="th" x="705" y="870">来源</text><path class="row" d="M90 902H1040"/><text class="td" x="90" y="895">00</text><text class="td" x="140" y="895">玩家出生点</text><text class="td muted" x="330" y="895">正面</text><text class="td" x="405" y="895">-27.0</text><text class="td" x="475" y="895">-186.0</text><text class="td" x="545" y="895">-171.7 / 35.1</text><text class="td muted" x="705" y="895">src/main.ts SPAWN_X/Z</text><path class="row" d="M90 930H1040"/><text class="td" x="90" y="923">01</text><text class="td" x="140" y="923">居住舱</text><text class="td muted" x="330" y="923">正面</text><text class="td" x="405" y="923">0.0</text><text class="td" x="475" y="923">54.0</text><text class="td" x="545" y="923">0.0 / 67.8</text><text class="td muted" x="705" y="923">habitatX/Z</text><path class="row" d="M90 958H1040"/><text class="td" x="90" y="951">02</text><text class="td" x="140" y="951">温室生态舱</text><text class="td muted" x="330" y="951">正面</text><text class="td" x="405" y="951">-72.0</text><text class="td" x="475" y="951">54.0</text><text class="td" x="545" y="951">-53.1 / 55.7</text><text class="td muted" x="705" y="951">greenhouseX/Z</text><path class="row" d="M90 986H1040"/><text class="td" x="90" y="979">03</text><text class="td" x="140" y="979">氧气生产站</text><text class="td muted" x="330" y="979">正面</text><text class="td" x="405" y="979">72.0</text><text class="td" x="475" y="979">54.0</text><text class="td" x="545" y="979">53.1 / 55.7</text><text class="td muted" x="705" y="979">oxygenX/Z</text><path class="row" d="M90 1014H1040"/><text class="td" x="90" y="1007">04</text><text class="td" x="140" y="1007">甲烷燃料厂</text><text class="td muted" x="330" y="1007">正面</text><text class="td" x="405" y="1007">72.0</text><text class="td" x="475" y="1007">-48.0</text><text class="td" x="545" y="1007">123.7 / 56.8</text><text class="td muted" x="705" y="1007">methaneX/Z</text><path class="row" d="M90 1042H1040"/><text class="td" x="90" y="1035">05</text><text class="td" x="140" y="1035">机器人车库</text><text class="td muted" x="330" y="1035">正面</text><text class="td" x="405" y="1035">-66.0</text><text class="td" x="475" y="1035">-48.0</text><text class="td" x="545" y="1035">-126.0 / 58.3</text><text class="td muted" x="705" y="1035">garageX/Z</text><path class="row" d="M90 1070H1040"/><text class="td" x="90" y="1063">06</text><text class="td" x="140" y="1063">通信塔</text><text class="td muted" x="330" y="1063">正面</text><text class="td" x="405" y="1063">138.0</text><text class="td" x="475" y="1063">72.0</text><text class="td" x="545" y="1063">62.4 / 40.3</text><text class="td muted" x="705" y="1063">towerX/Z</text><path class="row" d="M90 1098H1040"/><text class="td" x="90" y="1091">07</text><text class="td" x="140" y="1091">科研舱</text><text class="td muted" x="330" y="1091">正面</text><text class="td" x="405" y="1091">-126.0</text><text class="td" x="475" y="1091">-18.0</text><text class="td" x="545" y="1091">-98.1 / 46.0</text><text class="td muted" x="705" y="1091">lab04X/Z</text><path class="row" d="M90 1126H1040"/><text class="td" x="90" y="1119">08</text><text class="td" x="140" y="1119">物资仓</text><text class="td muted" x="330" y="1119">正面</text><text class="td" x="405" y="1119">-126.0</text><text class="td" x="475" y="1119">-84.0</text><text class="td" x="545" y="1119">-123.7 / 41.1</text><text class="td muted" x="705" y="1119">store07X/Z</text><path class="row" d="M90 1154H1040"/><text class="td" x="90" y="1147">09</text><text class="td" x="140" y="1147">医疗舱</text><text class="td muted" x="330" y="1147">正面</text><text class="td" x="405" y="1147">132.0</text><text class="td" x="475" y="1147">-24.0</text><text class="td" x="545" y="1147">100.3 / 44.5</text><text class="td muted" x="705" y="1147">med09X/Z</text><path class="row" d="M90 1182H1040"/><text class="td" x="90" y="1175">10</text><text class="td" x="140" y="1175">太阳能阵列 A</text><text class="td muted" x="330" y="1175">正面</text><text class="td" x="405" y="1175">-66.0</text><text class="td" x="475" y="1175">156.0</text><text class="td" x="545" y="1175">-22.9 / 37.9</text><text class="td muted" x="705" y="1175">solarAX/AZ</text><text class="th" x="1100" y="870">编号</text><text class="th" x="1150" y="870">名称</text><text class="th" x="1340" y="870">半球</text><text class="th" x="1415" y="870">X</text><text class="th" x="1485" y="870">Z</text><text class="th" x="1555" y="870">经纬度</text><path class="row" d="M1100 902H2070"/><text class="td" x="1100" y="895">11</text><text class="td" x="1150" y="895">太阳能阵列 B</text><text class="td muted" x="1340" y="895">正面</text><text class="td" x="1415" y="895">-12.0</text><text class="td" x="1485" y="895">156.0</text><text class="td" x="1555" y="895">-4.4 / 40.2</text><path class="row" d="M1100 930H2070"/><text class="td" x="1100" y="923">12</text><text class="td" x="1150" y="923">太阳能阵列 C</text><text class="td muted" x="1340" y="923">正面</text><text class="td" x="1415" y="923">42.0</text><text class="td" x="1485" y="923">156.0</text><text class="td" x="1555" y="923">15.1 / 39.3</text><path class="row" d="M1100 958H2070"/><text class="td" x="1100" y="951">13</text><text class="td" x="1150" y="951">登陆飞船</text><text class="td muted" x="1340" y="951">正面</text><text class="td" x="1415" y="951">396.0</text><text class="td" x="1485" y="951">234.0</text><text class="td" x="1555" y="951">59.4 / 16.0</text><path class="row" d="M1100 986H2070"/><text class="td" x="1100" y="979">14</text><text class="td" x="1150" y="979">货运飞船</text><text class="td muted" x="1340" y="979">正面</text><text class="td" x="1415" y="979">426.0</text><text class="td" x="1485" y="979">54.0</text><text class="td" x="1555" y="979">82.8 / 17.1</text><path class="row" d="M1100 1014H2070"/><text class="td" x="1100" y="1007">15</text><text class="td" x="1150" y="1007">返回飞船</text><text class="td muted" x="1340" y="1007">正面</text><text class="td" x="1415" y="1007">-354.0</text><text class="td" x="1485" y="1007">246.0</text><text class="td" x="1555" y="1007">-55.2 / 17.0</text><path class="row" d="M1100 1042H2070"/><text class="td" x="1100" y="1035">16</text><text class="td" x="1150" y="1035">NASA 火星车</text><text class="td muted" x="1340" y="1035">正面</text><text class="td" x="1415" y="1035">234.0</text><text class="td" x="1485" y="1035">168.0</text><text class="td" x="1555" y="1035">54.3 / 24.6</text><path class="row" d="M1100 1070H2070"/><text class="td" x="1100" y="1063">17</text><text class="td" x="1150" y="1063">黑色方碑</text><text class="td muted" x="1340" y="1063">正面</text><text class="td" x="1415" y="1063">-540.0</text><text class="td" x="1485" y="1063">-450.0</text><text class="td" x="1555" y="1063">-129.8 / 10.6</text><path class="row" d="M1100 1098H2070"/><text class="td" x="1100" y="1091">18</text><text class="td" x="1150" y="1091">火星足球</text><text class="td muted" x="1340" y="1091">正面</text><text class="td" x="1415" y="1091">34.5</text><text class="td" x="1485" y="1091">73.5</text><text class="td" x="1555" y="1091">25.1 / 58.4</text><path class="row" d="M1100 1126H2070"/><text class="td" x="1100" y="1119">19</text><text class="td" x="1150" y="1119">坠毁飞船残骸</text><text class="td muted" x="1340" y="1119">背面</text><text class="td" x="1415" y="1119">-42.6</text><text class="td" x="1485" y="1119">-161.8</text><text class="td" x="1555" y="1119">-165.3 / -38.3</text><path class="row" d="M1100 1154H2070"/><text class="td" x="1100" y="1147">20</text><text class="td" x="1150" y="1147">福福救援点</text><text class="td muted" x="1340" y="1147">背面</text><text class="td" x="1415" y="1147">-47.9</text><text class="td" x="1485" y="1147">-160.4</text><text class="td" x="1555" y="1147">-163.4 / -38.3</text><path class="row" d="M1100 1182H2070"/><text class="td" x="1100" y="1175">21</text><text class="td" x="1150" y="1175">远古巨树拱门候选</text><text class="td muted" x="1340" y="1175">背面</text><text class="td" x="1415" y="1175">0.0</text><text class="td" x="1485" y="1175">110.8</text><text class="td" x="1555" y="1175">0.0 / -50.0</text><text class="source" x="90" y="1460">说明：本图不是手工摆点。所有点先由实际 X/Z 与半球 normal 算出球面法线，再转换为经纬度绘制；红色基座圈按球面半径 58 游戏单位计算。</text></svg>